<?xml version="1.0" encoding="utf-8"?>
<!-- Generator: Adobe Illustrator 24.0.0, SVG Export Plug-In . SVG Version: 6.00 Build 0)  -->
<svg version="1.1" id="图层_1" xmlns="http://www.w3.org/2000/svg" xmlns:xlink="http://www.w3.org/1999/xlink" x="0px" y="0px"
	 viewBox="0 0 1000 36" style="enable-background:new 0 0 1000 36;" xml:space="preserve">
<style type="text/css">
	.st0{fill:#FFFFFF;}
	.st1{fill:#23B769;}
	.st2{fill:#FFB500;}
	.st3{fill:#F05454;}
	.st4{fill:#007AFF;}
	.st5{fill:#515151;}
</style>
<title>专业代做</title>
<rect x="0" y="1.3" class="st0" width="1001.7" height="35.4"/>
<path d="M571.4,19.5c0.5-0.6,0.9-1.2,1.3-1.8c0.4-0.6,0.7-1.3,1-1.9l0.6,0.3c-0.1,0.3-0.2,0.5-0.3,0.8s-0.3,0.5-0.4,0.8v6h-0.7v-4.9
	c-0.2,0.2-0.3,0.4-0.5,0.6l-0.5,0.6L571.4,19.5z M571.6,16c0.4-0.5,0.9-1,1.2-1.6c0.4-0.5,0.7-1,1-1.6l0.6,0.3
	c-0.3,0.6-0.6,1.1-1,1.7c-0.4,0.5-0.8,1.1-1.2,1.6L571.6,16z M573.8,23.1c0.2-0.2,0.3-0.4,0.5-0.6c0.1-0.2,0.2-0.3,0.3-0.5
	c0.2-0.5,0.2-1,0.2-1.5v-1.2h2.7v2.3c0.2-0.1,0.3-0.3,0.4-0.4c0.2-0.2,0.3-0.3,0.5-0.5l0.3,0.6l-0.4,0.4c-0.1,0.1-0.3,0.3-0.4,0.4
	l-0.5,0.4c-0.2,0.1-0.3,0.2-0.4,0.3l-0.4-0.5c0.1-0.1,0.1-0.2,0.2-0.3c0-0.1,0-0.1,0-0.2V20h-1.4v0.7c0,0.5-0.1,1-0.2,1.5
	c-0.2,0.5-0.5,1-0.9,1.4L573.8,23.1z M578.2,17.4v0.6h-4v-0.6H578.2z M575.2,13.7v2h0.8v-2.9h0.6v2.9h0.9v-2h0.6v2.6h-3.6v-2.6
	L575.2,13.7z M578.1,17.3c0.2-0.4,0.4-0.7,0.5-1.1c0.2-0.4,0.3-0.7,0.4-1.1s0.2-0.7,0.3-1.1s0.2-0.8,0.2-1.2l0.7,0.1
	c-0.1,0.4-0.2,0.7-0.2,1s-0.2,0.6-0.2,0.9h2.5v0.7h-0.6c-0.1,1.6-0.4,3.1-1,4.5l-0.2,0.4c0.2,0.5,0.5,0.9,0.8,1.4
	c0.3,0.4,0.7,0.9,1.1,1.3l-0.5,0.5c-0.7-0.7-1.3-1.6-1.8-2.4c-0.3,0.4-0.6,0.9-0.9,1.3c-0.3,0.4-0.7,0.9-1.2,1.3l-0.5-0.5
	c0.9-0.8,1.6-1.7,2.2-2.7l0,0l0,0c-0.2-0.5-0.4-0.9-0.5-1.4c-0.2-0.6-0.3-1.2-0.3-1.8l-0.3,0.5L578.1,17.3z M579.5,15.6l-0.1,0.3
	c0,0.1-0.1,0.2-0.1,0.3c0.1,1.2,0.3,2.4,0.8,3.6c0.5-1.3,0.8-2.7,0.8-4.1H579.5z"/>
<path d="M583.6,18.3c0.2-0.4,0.5-0.8,0.7-1.2s0.5-0.9,0.7-1.4c0.2-0.5,0.4-1,0.6-1.4s0.3-1,0.5-1.4l0.7,0.2
	c-0.1,0.5-0.3,0.9-0.4,1.3s-0.3,0.8-0.5,1.2v8.1h-0.7v-6.6c-0.1,0.3-0.3,0.5-0.4,0.8s-0.3,0.5-0.5,0.8L583.6,18.3z M590.5,12.7
	c0.1,0.2,0.2,0.4,0.3,0.7s0.2,0.6,0.3,0.8h3.2V15h-7.6v-0.7h3.5c-0.1-0.2-0.2-0.4-0.2-0.7c-0.1-0.2-0.2-0.4-0.3-0.6L590.5,12.7z
	 M593.4,16.1v0.7h-6v-0.7H593.4z M593.4,17.8v0.7h-6v-0.7H593.4z M593.4,19.6v3.6h-5.9v-3.6H593.4z M588.3,22.6h4.4v-2.2h-4.4V22.6z
	"/>
<path d="M595.8,18.3c0.2-0.4,0.5-0.8,0.7-1.2s0.5-0.9,0.7-1.4c0.2-0.5,0.4-1,0.6-1.4c0.2-0.5,0.3-1,0.5-1.4L599,13
	c-0.1,0.5-0.3,0.9-0.4,1.3s-0.3,0.8-0.5,1.2v8.1h-0.7v-6.6c-0.1,0.3-0.3,0.5-0.4,0.8s-0.3,0.5-0.5,0.8L595.8,18.3z M602.7,12.7
	c0.1,0.2,0.2,0.4,0.3,0.7s0.2,0.6,0.3,0.8h3.2V15H599v-0.7h3.5c-0.1-0.2-0.1-0.4-0.2-0.7c-0.1-0.2-0.2-0.4-0.3-0.6L602.7,12.7z
	 M605.6,16.1v0.7h-6v-0.7H605.6z M605.6,17.8v0.7h-6v-0.7H605.6z M605.6,19.6v3.6h-5.9v-3.6H605.6z M600.5,22.6h4.3v-2.2h-4.3V22.6z
	"/>
<path d="M608,18c0.7-0.3,1.3-0.7,1.9-1.2c0.5-0.4,1-0.9,1.4-1.5h-3v-0.6h2.3c-0.1-0.1-0.1-0.3-0.2-0.4c-0.1-0.2-0.2-0.3-0.3-0.5
	l-0.3-0.4c-0.1-0.1-0.2-0.2-0.2-0.3l0.6-0.4c0.1,0.1,0.2,0.2,0.3,0.4l0.3,0.5l0.3,0.5c0.1,0.2,0.2,0.3,0.2,0.4l-0.4,0.2h2.5
	l-0.2-0.4l-0.2-0.5l-0.2-0.5l-0.2-0.4l0.7-0.3c0.1,0.1,0.2,0.3,0.2,0.4c0.1,0.2,0.2,0.3,0.2,0.5l0.2,0.5c0.1,0.1,0.1,0.3,0.1,0.4
	l-0.6,0.2h1.8c0.1-0.1,0.2-0.3,0.3-0.5l0.4-0.5l0.3-0.5l0.3-0.5l0.7,0.4l-0.2,0.4c-0.1,0.1-0.2,0.3-0.3,0.4l-0.3,0.5l-0.3,0.4h2.3
	v0.6h-3c0.2,0.3,0.4,0.5,0.7,0.8c0.3,0.2,0.5,0.5,0.8,0.7c0.3,0.2,0.6,0.4,0.9,0.6c0.3,0.2,0.7,0.4,1,0.5l-0.4,0.7
	c-0.7-0.3-1.3-0.7-1.8-1.1h-6.3c-0.6,0.4-1.2,0.8-1.8,1.2L608,18z M617.2,20.6v2.7h-7.7v-2.7L617.2,20.6z M617.1,18.1v0.6h-7.5v-0.6
	H617.1z M617.1,19.4v0.6h-7.5v-0.6H617.1z M610.3,22.7h6.2v-1.5h-6.2V22.7z M613.4,15.7c0.1,0.1,0.1,0.2,0.2,0.3
	c0.1,0.1,0.1,0.2,0.2,0.3c0.1,0.1,0.1,0.2,0.2,0.3l0.2,0.3h1.8c-0.5-0.5-0.9-1-1.3-1.6h-2.4c-0.2,0.3-0.4,0.6-0.6,0.8
	c-0.2,0.3-0.5,0.5-0.7,0.8h2.4c-0.1-0.2-0.2-0.3-0.2-0.5l-0.3-0.4L613.4,15.7z"/>
<path d="M620.1,17.6c0.5-0.3,1-0.7,1.5-1.1c0.5-0.4,0.9-0.8,1.4-1.2c0.4-0.4,0.8-0.8,1.2-1.3c0.4-0.4,0.7-0.9,1-1.3h0.7
	c0.6,0.9,1.4,1.8,2.2,2.6c0.9,0.8,1.9,1.6,2.9,2.3l-0.5,0.8c-1-0.7-1.9-1.4-2.8-2.2c-0.8-0.8-1.5-1.6-2.2-2.5
	c-0.6,0.9-1.3,1.8-2.2,2.5c-0.8,0.8-1.8,1.6-2.8,2.2L620.1,17.6z M626,16.5v7.1h-0.8v-7.1H626z"/>
<path d="M632.5,22.9c0.8-0.6,1.5-1.2,2.2-1.9c0.6-0.6,1-1.3,1.4-2c0.4-0.7,0.6-1.4,0.8-2.2c0.2-0.9,0.3-1.8,0.3-2.7
	c0-0.3,0-0.5,0-0.6v-0.6h0.8v1.4v0.2c0,0.1,0,0.1,0,0.2c0.1,1.6,0.6,3.2,1.5,4.6c0.9,1.4,2,2.7,3.4,3.6l-0.6,0.7
	c-1.5-1.2-2.7-2.6-3.7-4.3c-0.4-0.7-0.7-1.5-0.9-2.3c-0.2,0.8-0.5,1.6-0.8,2.3c-0.4,0.8-0.9,1.5-1.5,2.2c-0.7,0.7-1.4,1.4-2.2,2
	L632.5,22.9z"/>
<path d="M647.9,14.7c0.2,0.2,0.3,0.4,0.5,0.6s0.3,0.4,0.5,0.7l-0.5,0.3h2.3c0.2-0.3,0.4-0.5,0.6-0.8c0.2-0.3,0.3-0.6,0.5-0.8
	l0.7,0.4c-0.1,0.2-0.3,0.4-0.4,0.6s-0.3,0.4-0.4,0.6h2.7v5.9c0,0.2,0,0.4-0.1,0.6c0,0.1-0.1,0.3-0.2,0.4c-0.1,0.1-0.2,0.2-0.4,0.2
	c-0.2,0-0.4,0.1-0.6,0.1h-0.6h-0.6l-0.2-0.8h0.6h0.6h0.4c0.1,0,0.2,0,0.2-0.1c0.1-0.1,0.1-0.1,0.1-0.2c0-0.1,0-0.3,0-0.4v-5h-7.2
	v6.6h-0.7v-7.3h2.7c-0.1-0.2-0.3-0.5-0.5-0.7s-0.3-0.4-0.5-0.6L647.9,14.7l-3.3,0V14h5c-0.1-0.2-0.1-0.4-0.2-0.6l-0.2-0.5l0.8-0.2
	c0.1,0.1,0.1,0.3,0.2,0.6l0.2,0.7h4.5v0.7L647.9,14.7z M649.3,17.7c-0.2,0.2-0.3,0.3-0.5,0.5l-0.6,0.5c-0.2,0.2-0.4,0.4-0.6,0.5
	l-0.6,0.5l-0.5-0.6c0.4-0.3,0.9-0.6,1.3-1c0.4-0.3,0.8-0.7,1.1-1L649.3,17.7z M651.9,19.1v3.1h-4.1v-3L651.9,19.1z M648.5,21.6h2.8
	v-1.8h-2.8V21.6z M652.8,19.7l-0.5-0.5l-0.6-0.5l-0.6-0.5c-0.2-0.2-0.4-0.3-0.5-0.4l0.5-0.5l0.5,0.4l0.6,0.5
	c0.2,0.2,0.4,0.4,0.6,0.5l0.6,0.5L652.8,19.7z"/>
<path d="M656.7,23.3c0.5-0.7,0.9-1.5,1.2-2.4c0.2-1.1,0.3-2.3,0.3-3.5v-3.1h3.8c-0.1-0.3-0.2-0.5-0.3-0.8s-0.2-0.5-0.3-0.6l0.8-0.3
	l0.2,0.3c0.1,0.1,0.1,0.3,0.2,0.4c0.1,0.2,0.1,0.3,0.2,0.5l0.2,0.5h3.5v4.3h-7.5c0,0.5-0.1,1-0.1,1.4c0,0.4-0.1,0.7-0.2,1.1
	c-0.1,0.4-0.3,0.9-0.5,1.3c-0.2,0.5-0.5,0.9-0.8,1.4L656.7,23.3z M658.9,17.3v0.3c0,0.1,0,0.2,0,0.3h6.7V15H659L658.9,17.3z"/>
<path d="M195.8,19c0.3-0.4,0.6-0.8,0.8-1.3s0.6-1,0.8-1.5c0.3-0.5,0.5-1.1,0.7-1.6c0.2-0.6,0.4-1.1,0.6-1.6l0.8,0.3
	c-0.2,0.5-0.3,0.9-0.5,1.3s-0.4,0.9-0.6,1.3v8h-0.8v-6.5c-0.4,0.7-0.8,1.4-1.3,2.1L195.8,19z M201.6,16.8l-0.1-0.7
	c0-0.2,0-0.5-0.1-0.7c0-0.5,0-0.9-0.1-1.3s0-0.7,0-1h0.8c0,0.6,0,1.4,0.1,2.3c0,0.2,0,0.5,0.1,0.7c0.1,0.2,0,0.4,0,0.6l4.1-0.4
	l0.1,0.8l-4.1,0.4c0.1,1,0.3,2.1,0.6,3c0.2,0.6,0.4,1.2,0.8,1.7c0.1,0.2,0.3,0.3,0.5,0.5c0.1,0.1,0.3,0.1,0.4,0.1
	c0.1,0,0.2,0,0.3-0.1c0.1-0.1,0.2-0.2,0.2-0.3c0.1-0.2,0.2-0.4,0.2-0.6c0.1-0.3,0.2-0.6,0.3-1l0.7,0.4c-0.1,0.5-0.3,1-0.4,1.3
	c-0.1,0.3-0.2,0.5-0.4,0.8c-0.1,0.2-0.3,0.3-0.4,0.4c-0.1,0.1-0.3,0.1-0.5,0.1c-0.3,0-0.5-0.1-0.8-0.2c-0.3-0.2-0.6-0.5-0.8-0.8
	c-0.4-0.6-0.7-1.3-0.9-2c-0.3-1-0.5-2.1-0.6-3.2l-2.7,0.2l-0.1-0.8L201.6,16.8z M203.6,13.5c0.1,0.1,0.3,0.2,0.4,0.4l0.6,0.5
	c0.4,0.3,0.7,0.6,1,0.9l-0.5,0.6c-0.1-0.1-0.3-0.3-0.4-0.4l-0.5-0.5c-0.3-0.3-0.7-0.6-1-0.9L203.6,13.5z"/>
<path d="M212.5,13.9v0.8h-1.7c-0.2,0.9-0.5,1.8-0.8,2.6h2v5.6h-2.8V19c-0.3,0.4-0.5,0.9-0.8,1.3l-0.6-0.5c0.5-0.8,1-1.6,1.4-2.5
	c0.4-0.8,0.7-1.7,0.9-2.6h-1.8V14L212.5,13.9z M209.8,22.2h1.5V18h-1.5V22.2z M216.8,20.5v0.8h-4.5v-0.8H216.8z M213.4,15l0.7,0.1
	l-0.3,3.1h2.3l0.4-3.7h-3.7v-0.8h4.5l-0.4,4.4h1.2c0,0.5,0,1,0,1.4s0,0.8,0,1.1s0,0.6-0.1,0.9s-0.1,0.6-0.1,0.9c0,0.2,0,0.4-0.1,0.5
	c0,0.1-0.1,0.3-0.2,0.4c-0.1,0.1-0.3,0.2-0.4,0.3c-0.2,0.1-0.5,0.1-0.7,0.1c-0.3,0-0.6,0-0.9,0.1H215l-0.1-0.9h0.7
	c0.3,0,0.6,0,0.9,0c0.1,0,0.3,0,0.4,0c0.1,0,0.2-0.1,0.3-0.1c0.1-0.1,0.1-0.2,0.1-0.3c0-0.1,0.1-0.3,0.1-0.4c0-0.5,0.1-1,0.1-1.5
	s0-1.1,0-1.7h-4.3L213.4,15z"/>
<path d="M224.7,22.9h0.6c0.2,0,0.4,0,0.6,0h0.3c0.1,0,0.1,0,0.2-0.1c0-0.1,0.1-0.1,0.1-0.2c0-0.1,0-0.2,0-0.3v-2.5h-2.9v-4.3h2.2
	c0.1-0.2,0.2-0.4,0.2-0.6c0.1-0.2,0.1-0.4,0.2-0.6h-4v3.1c0,0.8,0,1.6-0.1,2.2c0,0.5-0.1,1.1-0.2,1.6c-0.1,0.5-0.2,0.9-0.4,1.3
	c-0.2,0.5-0.5,1-0.7,1.4l-0.7-0.4c0.3-0.5,0.5-0.9,0.7-1.4c0.2-0.4,0.3-0.8,0.4-1.3c0.2-1.1,0.3-2.3,0.3-3.5v-3.8h9.3v0.7H227
	c-0.1,0.2-0.1,0.4-0.2,0.6c-0.1,0.2-0.1,0.4-0.2,0.6h3.2v4.3h-2.7v2.6c0,0.2,0,0.4,0,0.6c0,0.1-0.1,0.3-0.2,0.4
	c-0.1,0.1-0.2,0.2-0.4,0.2c-0.2,0-0.4,0.1-0.6,0.1h-0.6h-0.6L224.7,22.9z M222.2,22.9l0.6-0.5c0.2-0.2,0.4-0.4,0.7-0.7
	s0.4-0.5,0.6-0.7s0.3-0.4,0.5-0.6l0.6,0.4c-0.1,0.2-0.3,0.4-0.5,0.6s-0.4,0.5-0.7,0.8s-0.5,0.5-0.7,0.7l-0.5,0.5L222.2,22.9z
	 M224.4,17.3h4.8v-1.1h-4.8V17.3z M229.2,19.1V18h-4.8v1.2L229.2,19.1z M228.6,20.4c0.4,0.4,0.8,0.7,1.2,1.1l0.7,0.7l0.5,0.5
	l-0.6,0.5c-0.1-0.2-0.3-0.4-0.5-0.6c-0.2-0.2-0.4-0.4-0.6-0.7s-0.5-0.5-0.7-0.6c-0.2-0.2-0.4-0.3-0.6-0.5L228.6,20.4z"/>
<path d="M232.3,16.8c0.4-0.3,0.7-0.5,1-0.9c0.4-0.3,0.7-0.6,1-1c0.3-0.3,0.6-0.7,0.8-1.1c0.2-0.3,0.4-0.7,0.6-1l0.8,0.3l-0.1,0.3
	l-0.1,0.3c0.2,0.1,0.4,0.3,0.6,0.5l0.7,0.6c0.5,0.5,1,0.9,1.5,1.5l-0.6,0.6c-0.2-0.2-0.4-0.4-0.6-0.7l-0.8-0.8l-0.7-0.6
	c-0.2-0.2-0.4-0.3-0.6-0.5c-0.4,0.6-0.8,1.2-1.3,1.7c-0.5,0.5-1,1-1.6,1.5L232.3,16.8z M237.7,16.9c0,0.6,0,1.1,0,1.5s0,0.8-0.1,1.2
	c0,0.2,0,0.3-0.1,0.5c0,0.1-0.1,0.2-0.1,0.3c-0.1,0.1-0.2,0.2-0.3,0.2c-0.1,0.1-0.3,0.1-0.5,0.1c-0.2,0-0.4,0-0.6,0h-0.6l-0.1-0.8
	h0.3h0.3h0.6c0.1,0,0.2,0,0.3,0c0.1,0,0.1,0,0.1-0.1c0,0,0.1-0.1,0.1-0.2c0-0.1,0-0.2,0-0.3l0.1-1.9h-2.7v4.3c0,0.2,0,0.3,0,0.4
	c0,0.1,0,0.2,0.1,0.2c0,0.1,0.1,0.1,0.2,0.1c0.1,0,0.2,0,0.3,0h2.2h0.4c0.2,0,0.3-0.1,0.3-0.3c0-0.1,0-0.2,0.1-0.4s0-0.4,0-0.5
	s0-0.4,0-0.5l0.7,0.2c0,0.3,0,0.5-0.1,0.7c0,0.2,0,0.4-0.1,0.6c0,0.2-0.1,0.3-0.1,0.5c0,0.1-0.1,0.2-0.2,0.3
	c-0.1,0.1-0.2,0.1-0.4,0.2c-0.2,0-0.4,0.1-0.6,0.1H235c-0.2,0-0.5,0-0.7-0.1c-0.2,0-0.3-0.1-0.4-0.2c-0.1-0.1-0.2-0.2-0.2-0.4
	c0-0.2,0-0.5,0-0.7v-5.2H237.7z M240.1,14v6.9h-0.7V14L240.1,14z M242.3,22.4c0,0.2,0,0.4,0,0.5c0,0.1-0.1,0.3-0.2,0.4
	c-0.1,0.1-0.2,0.2-0.3,0.2c-0.1,0.1-0.3,0.1-0.4,0.1c-0.3,0-0.5,0-0.8,0.1h-0.8l-0.1-0.9c0.2,0,0.4,0,0.7,0s0.5,0,0.7,0
	c0.1,0,0.2,0,0.3,0c0.1,0,0.1,0,0.2-0.1c0-0.1,0.1-0.1,0.1-0.2c0-0.1,0-0.2,0-0.4v-9h0.7L242.3,22.4z"/>
<path d="M254.8,13.8v0.8h-3.7c-0.2,0.3-0.4,0.7-0.6,1c-0.2,0.3-0.4,0.7-0.7,1h0.4v7.1h-0.8v-6.6c-1.2,1.5-2.6,2.9-4.2,4.1l-0.5-0.6
	c1.2-0.8,2.2-1.8,3.2-2.9c0.9-0.9,1.6-2,2.2-3.1H245v-0.8L254.8,13.8z M251.1,17c0.3,0.2,0.6,0.5,1,0.8s0.7,0.6,1.1,0.9
	s0.7,0.6,1.1,1s0.6,0.6,0.9,0.9l-0.6,0.6c-0.2-0.3-0.5-0.5-0.9-0.9s-0.7-0.6-1-1l-1.1-1l-0.9-0.8L251.1,17z"/>
<path d="M266.4,13.5v0.6h-4v1h4.3v2.3h-0.7v-1.7h-3.7v2.8h-0.7v-2.8H258v1.8h-0.7v-2.4h4.4v-1h-4v-0.6L266.4,13.5z M266,18.9v4.7
	h-7.9v-4.7H266z M261,16.4v0.5h-2.3v-0.5H261z M261,17.6v0.5h-2.3v-0.5H261z M258.8,20.9h2.9v-1.4h-2.9V20.9z M258.8,22.9h2.9v-1.4
	h-2.9V22.9z M262.4,19.5v1.4h2.9v-1.4L262.4,19.5z M265.3,23v-1.5h-2.9V23H265.3z M265.4,16.5V17h-2.3v-0.5H265.4z M265.4,17.6v0.5
	h-2.3v-0.5L265.4,17.6z"/>
<path d="M278.6,13.7v8.7c0,0.3-0.1,0.7-0.2,0.9c-0.2,0.2-0.6,0.3-0.9,0.4c-0.2,0-0.5,0.1-0.7,0H276l-0.2-0.9c0.4,0,0.8,0,1.2,0
	c0.1,0,0.3,0,0.4,0c0.1,0,0.2,0,0.2-0.1c0.1-0.1,0.1-0.1,0.1-0.2c0-0.1,0-0.3,0-0.4v-7.7h-7.5v9.3h-0.8V13.7H278.6z M277.1,16v0.7
	h-5.9V16H277.1z M276.3,18v3.8h-4.4V18H276.3z M272.6,21.1h3v-2.4h-3V21.1z"/>
<path d="M297.4,22.9h0.6c0.2,0,0.4,0,0.6,0h0.3c0.1,0,0.1,0,0.2-0.1c0-0.1,0.1-0.1,0.1-0.2c0-0.1,0-0.2,0-0.3v-2.5h-2.9v-4.3h2.2
	c0.1-0.2,0.2-0.4,0.2-0.6c0.1-0.2,0.1-0.4,0.2-0.6h-4v3.1c0,0.8,0,1.6-0.1,2.2c0,0.5-0.1,1.1-0.2,1.6c-0.1,0.5-0.2,0.9-0.4,1.3
	c-0.2,0.5-0.5,1-0.7,1.4l-0.7-0.4c0.3-0.5,0.5-0.9,0.7-1.4c0.2-0.4,0.3-0.8,0.4-1.3c0.2-1.1,0.3-2.3,0.3-3.5v-3.8h9.3v0.7h-3.8
	c0,0.2-0.1,0.4-0.2,0.6c-0.1,0.2-0.1,0.4-0.2,0.6h3.2v4.3h-2.7v2.6c0,0.2,0,0.4,0,0.6c0,0.1-0.1,0.3-0.2,0.4
	c-0.1,0.1-0.2,0.2-0.4,0.2c-0.2,0-0.4,0.1-0.6,0.1h-0.6h-0.6L297.4,22.9z M294.8,22.9l0.5-0.5c0.2-0.2,0.4-0.4,0.7-0.7
	s0.5-0.5,0.6-0.7s0.3-0.4,0.5-0.6l0.6,0.4c-0.1,0.2-0.3,0.4-0.5,0.6s-0.4,0.5-0.7,0.8s-0.5,0.5-0.7,0.7l-0.5,0.5L294.8,22.9z
	 M297,17.3h4.8v-1.1H297L297,17.3z M301.8,19.1V18H297v1.2L301.8,19.1z M301.2,20.4c0.4,0.4,0.8,0.7,1.2,1.1l0.7,0.7l0.5,0.5
	l-0.6,0.5c-0.1-0.2-0.3-0.4-0.5-0.6c-0.2-0.2-0.4-0.4-0.6-0.7s-0.5-0.5-0.7-0.6c-0.2-0.2-0.4-0.3-0.5-0.5L301.2,20.4z"/>
<path d="M304.9,16.8c0.4-0.3,0.7-0.5,1-0.9c0.4-0.3,0.7-0.6,1-1c0.3-0.3,0.6-0.7,0.8-1.1c0.2-0.3,0.4-0.7,0.6-1l0.8,0.3l-0.1,0.3
	l-0.1,0.3c0.2,0.1,0.4,0.3,0.6,0.5l0.7,0.6c0.5,0.5,1,1,1.5,1.5l-0.6,0.6c-0.2-0.2-0.4-0.4-0.6-0.7l-0.8-0.8l-0.7-0.6
	c-0.2-0.2-0.4-0.3-0.6-0.5c-0.4,0.6-0.8,1.2-1.3,1.7c-0.5,0.5-1,1-1.6,1.5L304.9,16.8z M310.3,16.9c0,0.6,0,1.1,0,1.5s0,0.8,0,1.2
	c0,0.2,0,0.3-0.1,0.5c0,0.1-0.1,0.2-0.1,0.3c-0.1,0.1-0.2,0.2-0.3,0.2c-0.1,0.1-0.3,0.1-0.5,0.1c-0.2,0-0.4,0-0.6,0H308l-0.1-0.8
	h0.3h0.3h0.6c0.1,0,0.2,0,0.3,0c0.1,0,0.1,0,0.1-0.1c0,0,0.1-0.1,0.1-0.2c0-0.1,0-0.2,0-0.3l0.1-1.9h-2.7v4.3c0,0.2,0,0.3,0,0.4
	c0,0.1,0,0.2,0.1,0.2c0,0.1,0.1,0.1,0.2,0.1c0.1,0,0.2,0,0.3,0h2.2h0.4c0.2,0,0.3-0.1,0.3-0.3c0-0.1,0-0.2,0.1-0.4s0-0.4,0-0.5
	s0-0.4,0-0.5l0.7,0.2c0,0.3,0,0.5-0.1,0.7c0,0.2,0,0.4-0.1,0.6c0,0.2,0,0.4,0,0.6c0,0.1-0.1,0.2-0.2,0.3c-0.1,0.1-0.2,0.1-0.4,0.2
	c-0.2,0-0.4,0.1-0.5,0.1h-2.2c-0.2,0-0.5,0-0.7-0.1c-0.2,0-0.3-0.1-0.4-0.2c-0.1-0.1-0.2-0.2-0.2-0.4c0-0.2-0.1-0.5,0-0.7v-5.3
	H310.3z M312.7,14v6.9H312V14L312.7,14z M314.9,22.4c0,0.2,0,0.4,0,0.5c0,0.1-0.1,0.3-0.2,0.4c-0.1,0.1-0.2,0.2-0.3,0.2
	c-0.1,0.1-0.3,0.1-0.5,0.1c-0.3,0-0.5,0-0.8,0.1h-0.8l-0.1-0.9c0.2,0,0.5,0,0.7,0s0.5,0,0.7,0c0.1,0,0.2,0,0.3,0
	c0.1,0,0.1,0,0.2-0.1c0-0.1,0.1-0.1,0.1-0.2c0-0.1,0-0.2,0-0.4v-9h0.7L314.9,22.4z"/>
<path d="M327,13.7v8.5c0,0.2,0,0.4,0,0.6c0,0.2-0.1,0.3-0.1,0.4c-0.1,0.1-0.2,0.2-0.4,0.3c-0.2,0.1-0.4,0.1-0.7,0.1h-0.6h-0.8
	l-0.2-0.9h0.9h0.6c0.1,0,0.2,0,0.4-0.1c0.1,0,0.1-0.1,0.2-0.1c0.1-0.1,0.1-0.2,0.1-0.3c0-0.1,0-0.3,0-0.5v-7.5h-7.6v9.4H318V13.7
	H327z M318.9,21.8c0.3-0.5,0.6-1,0.9-1.5s0.6-1,0.8-1.6l0.1-0.3v-0.1c-0.3-0.6-0.5-1-0.8-1.5c-0.2-0.4-0.4-0.7-0.7-1.1l0.6-0.4
	c0.5,0.7,0.9,1.4,1.3,2.2c0.2-0.4,0.3-0.8,0.5-1.2s0.3-0.8,0.4-1.2l0.6,0.2c-0.2,0.5-0.4,1-0.6,1.5s-0.4,1-0.6,1.5
	c0.2,0.5,0.4,0.9,0.6,1.3s0.3,0.7,0.4,1l-0.6,0.3c-0.1-0.3-0.2-0.5-0.3-0.8s-0.3-0.6-0.4-1c-0.3,0.6-0.5,1.1-0.8,1.5
	s-0.5,0.9-0.8,1.4L318.9,21.8z M321.9,22c0.4-0.6,0.7-1.1,1-1.7s0.6-1.2,0.9-1.8c-0.4-0.8-0.8-1.5-1.3-2.3l0.6-0.4
	c0.2,0.2,0.3,0.5,0.5,0.8s0.4,0.6,0.6,1c0.4-0.8,0.6-1.6,0.9-2.4l0.7,0.2c-0.3,1-0.7,2-1.1,3c0,0,0,0.1,0.1,0.1
	c0.5,0.9,1,1.9,1.4,2.9l-0.6,0.3c-0.1-0.4-0.3-0.7-0.5-1.1s-0.4-0.9-0.7-1.4c-0.3,0.5-0.5,1.1-0.8,1.6s-0.6,1-0.9,1.5L321.9,22z"/>
<path d="M329.4,23.1c2-0.6,3.4-1.1,3.9-1.7c0.6-0.7,0.9-1.5,0.9-2.4c0-0.1,0-0.2,0-0.4v-1h0.8v0.8c0,0.2,0,0.5,0,0.6
	c0,0.5-0.1,1-0.2,1.4c0.3,0.1,0.7,0.3,1,0.5s0.8,0.4,1.3,0.7s1,0.5,1.5,0.8s0.8,0.5,1.1,0.7l-0.5,0.8c-0.3-0.3-0.7-0.5-1-0.7
	c-0.4-0.3-0.8-0.5-1.4-0.8l-1.3-0.7c-0.4-0.2-0.7-0.4-1-0.5c-0.1,0.2-0.3,0.5-0.5,0.6c-0.4,0.4-0.9,0.8-1.5,1
	c-0.8,0.4-1.7,0.7-2.6,1L329.4,23.1z M333.8,16.1l0.3-0.8c0.1-0.3,0.2-0.6,0.2-0.9h-4.6v-0.8h9.9v0.8h-4.4c0,0.1-0.1,0.3-0.1,0.4
	s-0.1,0.3-0.1,0.5s-0.1,0.3-0.1,0.4s-0.1,0.2-0.1,0.4h3.7v5h-0.8v-4.3h-6v4.3h-0.8V16L333.8,16.1z"/>
<path d="M341.3,18.6c0.5-0.8,1-1.6,1.5-2.5c0.5-0.9,0.9-1.9,1.2-2.9l0.8,0.2c-0.2,0.5-0.3,0.9-0.5,1.4s-0.4,0.8-0.5,1.2v8h-0.8v-6.5
	c-0.2,0.3-0.4,0.6-0.5,0.9s-0.4,0.6-0.6,0.8L341.3,18.6z M344.3,17.7c0.5-0.7,1-1.4,1.4-2.2c0.5-0.8,0.8-1.7,1.1-2.6l0.8,0.2
	c-0.1,0.3-0.2,0.6-0.3,0.8s-0.2,0.5-0.3,0.8h4.9v0.8h-3.7v2h3.1v0.8h-3.1v2.1h3.4v0.8h-3.4V24h-0.8v-8.4h-0.8c-0.5,1-1,1.9-1.7,2.7
	L344.3,17.7z"/>
<path d="M358.2,18.6v4.7h-3.9v-4.7H358.2z M355,22.5h2.5v-3.2H355V22.5z M362.5,13.5v3.7h-7.2v-3.7L362.5,13.5z M356.1,16.5h5.7
	v-2.3h-5.7V16.5z M363.6,18.6v4.7h-4.1v-4.7L363.6,18.6z M360.2,22.5h2.6v-3.2h-2.6L360.2,22.5z"/>
<path d="M368.2,17.1v-1.8h-1.9v-0.7h1.9v-1.5h0.7v1.5h1.7v0.7h-1.7v1.8h1.7v0.7h-1.5v1.9h1.5v0.7h-1.5v1.9c0.3,0.1,0.6,0.2,0.9,0.3
	c0.4,0.1,0.7,0.1,1.1,0.1c0.4,0,0.8,0,1.2,0s0.8,0,1.2,0s0.9,0,1.4,0s1-0.1,1.6-0.1l-0.1,0.8c-0.5,0-1.1,0.1-1.5,0.1h-1.4
	c-0.4,0-0.9,0-1.3,0l-1.2,0c-0.4,0-0.8-0.1-1.2-0.2c-0.4-0.1-0.7-0.2-1.1-0.4c-0.3-0.2-0.6-0.4-0.9-0.6c-0.3-0.3-0.5-0.6-0.7-0.9
	c-0.1,0.5-0.2,0.9-0.3,1.3c-0.1,0.4-0.3,0.8-0.5,1.2l-0.7-0.3c0.4-0.7,0.6-1.5,0.8-2.4c0.1-0.4,0.1-0.9,0.1-1.3c0-0.5,0-0.9,0-1.4
	h0.7c0,0.3,0,0.6,0,0.9c0,0.3,0,0.6-0.1,0.9c0.2,0.6,0.6,1.2,1.1,1.6v-4.1H366v-0.7H368.2z M373.1,16.7h0.5c0.2,0,0.4,0,0.5,0h0.3
	c0.1,0,0.1,0,0.2-0.1c0,0,0.1-0.1,0.1-0.2c0-0.1,0-0.2,0.1-0.3c0-0.3,0-0.6,0.1-0.9s0-0.6,0-0.9H373c0,0.3-0.1,0.6-0.1,0.9
	c-0.1,0.3-0.2,0.6-0.3,0.9c-0.1,0.3-0.3,0.6-0.5,0.9c-0.3,0.3-0.5,0.6-0.8,0.9l-0.5-0.5c0.3-0.2,0.5-0.4,0.7-0.7
	c0.2-0.2,0.3-0.4,0.5-0.7c0.1-0.2,0.2-0.5,0.3-0.8c0.1-0.3,0.1-0.6,0.2-0.9h-1.7v-0.7h5c0,0.6,0,1.1-0.1,1.5s0,0.8-0.1,1.1
	c0,0.2,0,0.3-0.1,0.5c0,0.1-0.1,0.2-0.2,0.3c-0.1,0.1-0.2,0.2-0.3,0.2c-0.1,0.1-0.3,0.1-0.5,0.1l-0.6,0c-0.2,0-0.4,0-0.6,0
	L373.1,16.7z M375.5,18.2v3.6h-4.3v-3.6L375.5,18.2z M371.9,21.1h2.9v-2.2h-2.9V21.1z"/>
<path d="M383.9,20.6c0,0.5-0.1,1-0.4,1.5c-0.2,0.4-0.6,0.8-1,1c-0.5,0.2-1,0.4-1.5,0.4c-0.6,0-1.2-0.1-1.7-0.5
	c-0.5-0.3-0.8-0.7-0.9-1.3l0.6-0.4c0.1,0.4,0.3,0.8,0.7,1c0.7,0.4,1.6,0.5,2.4,0.1c0.3-0.2,0.6-0.4,0.8-0.8c0.2-0.3,0.3-0.7,0.3-1.1
	c0-0.4-0.1-0.8-0.3-1.1c-0.2-0.3-0.4-0.6-0.8-0.7c-0.3-0.2-0.7-0.3-1.1-0.3c-0.3,0-0.7,0.1-1,0.2c-0.3,0.1-0.5,0.3-0.6,0.6l-0.7-0.2
	l0.5-5h4.2v0.7H380l-0.4,3.4c0.2-0.1,0.4-0.3,0.7-0.3c0.2-0.1,0.5-0.1,0.8-0.1c0.5,0,1,0.1,1.4,0.4c0.4,0.2,0.8,0.6,1,1
	C383.8,19.5,383.9,20,383.9,20.6z"/>
<path d="M388.7,23.4c-0.9,0-1.8-0.4-2.3-1.2c-0.6-1.1-0.8-2.3-0.8-3.5c-0.1-1.2,0.2-2.4,0.8-3.5c0.8-1.2,2.4-1.6,3.7-0.8
	c0.3,0.2,0.6,0.5,0.8,0.8c0.6,1.1,0.8,2.3,0.8,3.5c0.1,1.2-0.2,2.4-0.8,3.5C390.5,23,389.6,23.4,388.7,23.4z M388.7,22.7
	c0.7,0,1.3-0.4,1.6-1c0.4-0.9,0.6-2,0.6-3c0.1-1-0.1-2.1-0.6-3c-0.4-0.9-1.6-1.3-2.5-0.8c-0.4,0.2-0.7,0.5-0.8,0.8
	c-0.4,0.9-0.6,2-0.6,3c-0.1,1,0.1,2.1,0.6,3C387.3,22.3,388,22.7,388.7,22.7z"/>
<path d="M396.3,23.4c-0.9,0-1.8-0.4-2.2-1.2c-0.6-1.1-0.8-2.3-0.8-3.5c-0.1-1.2,0.2-2.4,0.8-3.5c0.8-1.2,2.4-1.6,3.7-0.8
	c0.3,0.2,0.6,0.5,0.8,0.8c0.6,1.1,0.8,2.3,0.8,3.5c0.1,1.2-0.2,2.4-0.8,3.5C398.1,23,397.2,23.4,396.3,23.4z M396.3,22.7
	c0.7,0,1.3-0.4,1.6-1c0.4-0.9,0.6-2,0.6-3c0.1-1-0.1-2.1-0.6-3c-0.4-0.9-1.6-1.3-2.5-0.8c-0.4,0.2-0.7,0.5-0.8,0.8
	c-0.4,0.9-0.6,2-0.6,3c-0.1,1,0.1,2.1,0.6,3C395,22.3,395.6,22.7,396.3,22.7z"/>
<path d="M400.8,17.2c0.7-0.3,1.4-0.6,2-1c0.5-0.3,1-0.6,1.4-1l0.2-0.2c0.1-0.1,0.1-0.1,0.2-0.2h-3.3v-0.6h3.8
	c0.3-0.4,0.5-0.9,0.7-1.3l0.8,0.2c-0.2,0.4-0.4,0.7-0.6,1.1h5.2v0.6h-3.4c0.5,0.5,1.1,1,1.7,1.3c0.7,0.4,1.4,0.7,2.2,0.9l-0.3,0.7
	c-0.4-0.1-0.7-0.3-1.1-0.4c-0.3-0.2-0.7-0.3-1-0.5h-5.4v0.8h5.9v0.6h-5.9v0.8h5.9v0.6h-5.9v0.9h7.5v0.6h-3.1l0.6,0.4l0.7,0.6
	c0.2,0.2,0.5,0.4,0.7,0.6s0.4,0.4,0.5,0.5l-0.5,0.6c-0.2-0.2-0.5-0.5-0.8-0.8l-3.7,0.2c-1.2,0-2.5,0.1-3.7,0.1l-0.1-0.7
	c0.1,0,0.3,0,0.4-0.1l0.3-0.1c0.3-0.2,0.6-0.4,0.9-0.6s0.6-0.5,0.9-0.7H401v-0.6h2V17c-0.3,0.2-0.6,0.3-0.9,0.5s-0.6,0.3-1,0.5
	L400.8,17.2z M408.1,21.2h-2.7c-0.3,0.3-0.6,0.6-1,0.8s-0.6,0.5-1,0.7h1.6l1.6-0.1l1.1-0.1l1-0.1l-0.6-0.5l-0.4-0.4L408.1,21.2z
	 M408.3,16.2c-0.3-0.2-0.5-0.4-0.7-0.6c-0.2-0.2-0.4-0.4-0.6-0.7h-1.4c-0.2,0.3-0.5,0.6-0.8,0.9l-0.2,0.2l-0.3,0.2H408.3z"/>
<path d="M429.4,18.6v4.7h-3.9v-4.7H429.4z M426.2,22.5h2.5v-3.2h-2.5V22.5z M433.7,13.5v3.7h-7.2v-3.7L433.7,13.5z M427.3,16.5h5.7
	v-2.3h-5.7V16.5z M434.8,18.6v4.7h-4.1v-4.7L434.8,18.6z M431.4,22.5h2.6v-3.2h-2.6L431.4,22.5z"/>
<path d="M437,23.5c0.5-0.8,0.9-1.7,1.1-2.6c0.1-0.5,0.2-1,0.2-1.4c0-0.6,0.1-1.3,0.1-2v-3.6c1.2,0,2.6-0.1,4.3-0.2
	c0.8-0.1,1.6-0.1,2.3-0.2l2-0.2l0.1,0.7c-1.1,0.1-2.4,0.2-4,0.4l-2.2,0.1l-1.8,0.1v2.8c0,0.8,0,1.6-0.1,2.2s-0.1,1.1-0.2,1.6
	c-0.1,0.4-0.2,0.9-0.4,1.3c-0.2,0.5-0.4,1-0.7,1.4L437,23.5z M439.1,23.2l1-0.2c0.3-0.1,0.6-0.2,0.8-0.3c0.2-0.1,0.5-0.2,0.7-0.3
	c0.2-0.1,0.4-0.3,0.6-0.4c0.3-0.2,0.5-0.5,0.6-0.8c0.1-0.4,0.2-0.7,0.3-1.1c0-0.3,0-0.6,0-0.9h0.7c0,0.2,0,0.3,0,0.5s0,0.3,0,0.5
	c0,0.4-0.1,0.9-0.3,1.3c0.3,0.1,0.5,0.2,0.9,0.4l1.1,0.5l1.2,0.6c0.4,0.2,0.7,0.4,0.9,0.5l-0.4,0.7c-0.3-0.2-0.6-0.4-0.9-0.6
	c-0.4-0.2-0.8-0.4-1.2-0.6l-1.1-0.5l-0.9-0.4c-0.1,0.2-0.3,0.4-0.5,0.5c-0.4,0.4-0.9,0.7-1.5,0.9c-0.6,0.2-1.2,0.4-1.9,0.5
	L439.1,23.2z M443,15.9v-1.2h0.8v1.2h3.8v0.7h-3.8v1.3h2.7v3.7h-0.7v-3H441v3h-0.7v-3.7h2.7v-1.3h-3.5v-0.7L443,15.9z"/>
<path d="M449.1,18.6c0.5-0.8,1-1.7,1.4-2.6c0.3-0.5,0.5-1,0.7-1.5c0.2-0.5,0.4-1,0.5-1.5l0.7,0.2c-0.1,0.5-0.3,0.9-0.5,1.3
	s-0.3,0.8-0.5,1.2v8.1h-0.8v-6.5l-0.5,0.8c-0.2,0.3-0.3,0.5-0.5,0.8L449.1,18.6z M451.8,22.6c0.7-0.4,1.3-0.8,1.8-1.3
	c0.5-0.5,1-1.1,1.3-1.8h-2.6v-0.7h3.3v-1.1h0.7v1.1h3.3v0.7h-2.8c0.3,0.6,0.7,1.1,1.1,1.5c0.6,0.6,1.2,1.1,2,1.5l-0.4,0.7
	c-0.4-0.2-0.7-0.4-1-0.7c-0.3-0.3-0.6-0.5-0.9-0.9c-0.6-0.6-1-1.3-1.3-2.1v4.4h-0.7v-4.4c-0.3,0.8-0.8,1.5-1.4,2.2
	c-0.6,0.6-1.3,1.2-2,1.6L451.8,22.6z M458.8,13.7v3.6h-5.7v-3.6L458.8,13.7z M453.9,16.6h4.2v-2.2h-4.2V16.6z"/>
<path d="M463.5,21.8c0.2-0.2,0.4-0.3,0.5-0.5c0.2-0.2,0.4-0.5,0.6-0.7l0.3,0.8c-0.1,0.1-0.3,0.3-0.5,0.5l-0.5,0.5
	c-0.2,0.2-0.4,0.3-0.6,0.5c-0.2,0.2-0.4,0.3-0.5,0.4l-0.4-0.6c0.1-0.1,0.2-0.2,0.3-0.3c0-0.1,0-0.2,0-0.3v-4.4h-1.4v-0.8h2.1
	L463.5,21.8z M462.6,13.3l0.4,0.4l0.5,0.6l0.4,0.6c0.1,0.2,0.2,0.3,0.3,0.5l-0.6,0.5l-0.3-0.5c-0.1-0.2-0.3-0.4-0.4-0.6l-0.5-0.6
	l-0.3-0.4L462.6,13.3z M471.6,13.8v0.7H469v3.3h2.6v0.7H469v4h3v0.7h-7.9v-0.7h1.4v-6.1h0.8v6.1h1.9v-8h-3.3v-0.7L471.6,13.8z"/>
<path d="M489.1,18.4l-0.6,0.3l-0.8,0.3v3.6c0,0.3,0,0.5-0.2,0.8c-0.2,0.2-0.4,0.3-0.6,0.3h-0.3h-0.9l-0.1-0.9h0.4h0.4
	c0.2,0,0.3,0,0.5-0.1c0.1-0.1,0.1-0.3,0.1-0.5v-3l-0.9,0.3l-0.7,0.3l-0.3-0.8l0.8-0.3l1-0.4V16h-1.5v-0.7h1.5V13h0.8v2.2h1.3V16
	h-1.3v2.2l0.6-0.3l0.6-0.3L489.1,18.4z M488.2,23.2c0.7-0.2,1.3-0.5,1.9-0.9c0.5-0.3,1-0.6,1.5-0.9c-0.4-0.5-0.7-1-1-1.5
	c-0.3-0.6-0.6-1.2-0.8-1.9h-0.4v-0.7h2.6v-1.8h-2.6v-0.7h2.6V13h0.8v1.8h3v0.7h-3v1.8h2.2V18c-0.4,1.3-1.1,2.5-2.1,3.4l-0.1,0.1
	c0.4,0.4,0.9,0.7,1.4,0.9c0.6,0.3,1.2,0.6,1.8,0.8l-0.4,0.8c-0.7-0.3-1.3-0.6-1.9-0.9c-0.5-0.3-1-0.7-1.5-1.1
	c-0.5,0.4-1.1,0.7-1.6,1c-0.6,0.3-1.3,0.6-2,0.9L488.2,23.2z M490.6,18c0.2,0.6,0.4,1.1,0.7,1.6c0.3,0.5,0.6,0.9,1,1.4
	c0.4-0.4,0.8-0.8,1.1-1.3c0.3-0.5,0.6-1.1,0.8-1.6L490.6,18z"/>
<path d="M497.4,22c0.5-0.3,0.9-0.7,1.3-1.1c0.4-0.4,0.8-0.9,1.2-1.4c0.4-0.5,0.7-1,1-1.5c0.3-0.5,0.5-1.1,0.8-1.6h-3.7v-0.7h4.5V13
	h0.8v2.5h4.6v0.7H504c0.4,1.1,1,2.2,1.7,3.1c0.7,1,1.6,1.8,2.6,2.5l-0.6,0.8c-0.5-0.4-0.9-0.7-1.3-1.2c-0.5-0.5-0.9-1-1.2-1.5
	c-0.4-0.6-0.8-1.1-1.1-1.8c-0.3-0.6-0.6-1.3-0.8-1.9l0,0v7.7h-0.8v-7.7l0,0c-0.2,0.7-0.5,1.3-0.8,1.9c-0.3,0.6-0.6,1.2-1,1.7
	c-0.4,0.5-0.8,1-1.2,1.5c-0.4,0.4-0.9,0.8-1.4,1.2L497.4,22z M504.7,13.2c0.1,0.1,0.3,0.2,0.4,0.4l0.5,0.4l0.4,0.4
	c0.1,0.1,0.3,0.3,0.4,0.4l-0.5,0.6c-0.3-0.3-0.5-0.5-0.8-0.8c-0.3-0.3-0.6-0.5-0.9-0.8L504.7,13.2z"/>
<path d="M511.3,21.2v-3.3h-1.6v-0.7h2.4v4.1c0.2,0.3,0.4,0.5,0.7,0.7c0.2,0.2,0.5,0.3,0.8,0.4c0.3,0.1,0.6,0.2,0.9,0.2
	c0.3,0,0.7,0.1,1.1,0.1s0.7,0,1.1,0h1.3c0.4,0,0.9,0,1.3,0s0.8,0,1.1-0.1l-0.2,0.8c-0.3,0-0.7,0-1.1,0.1s-0.9,0-1.3,0s-0.9,0-1.3,0
	s-0.8,0-1.1,0s-0.8-0.1-1.2-0.1c-0.3,0-0.7-0.1-1-0.3c-0.3-0.1-0.6-0.3-0.8-0.4c-0.3-0.2-0.5-0.4-0.7-0.7l-0.9,0.9
	c-0.3,0.3-0.6,0.6-0.8,0.9l-0.5-0.6L511.3,21.2z M511,13.3c0.2,0.3,0.5,0.6,0.9,1.1c0.3,0.4,0.6,0.7,0.8,1.1l-0.6,0.5
	c-0.1-0.2-0.2-0.3-0.3-0.5l-0.5-0.6c-0.4-0.5-0.7-0.9-0.9-1.1L511,13.3z M518.4,15.1h1.8v0.8h-1.8v4.4c0,0.2,0,0.4,0,0.6
	c0,0.1-0.1,0.3-0.2,0.4c-0.1,0.1-0.2,0.2-0.3,0.2c-0.2,0.1-0.4,0.1-0.6,0.1c-0.3,0-0.6,0-1,0.1s-0.6,0-0.9,0l-0.2-0.9h0.9
	c0.3,0,0.6,0,0.9,0c0.1,0,0.2,0,0.3,0c0.1,0,0.1,0,0.2-0.1c0-0.1,0.1-0.1,0.1-0.2c0-0.1,0-0.3,0-0.4v-4.2h-4.4v-0.8h4.4V13h0.8
	L518.4,15.1z M514.2,16.5c0.1,0.1,0.3,0.3,0.5,0.5s0.3,0.4,0.5,0.6s0.3,0.5,0.5,0.7s0.3,0.5,0.4,0.7l-0.6,0.4
	c-0.3-0.5-0.6-0.9-0.9-1.3c-0.3-0.4-0.6-0.8-1-1.2L514.2,16.5z"/>
<path d="M521.7,19.6c0.9-1.5,1.6-3.2,2-5h-1.5v-0.7h3.7v0.7h-1.5c-0.2,0.8-0.4,1.7-0.7,2.5h1.8v5.5h-2.6v-3.7
	c-0.1,0.2-0.2,0.4-0.3,0.6s-0.2,0.4-0.3,0.5L521.7,19.6z M523.5,22h1.2v-4.2h-1.2V22z M527,20.2c0.2,0.3,0.4,0.6,0.6,0.8
	c0.2,0.2,0.4,0.4,0.7,0.6c0.2-0.5,0.4-1,0.4-1.5h-2.3v-4.5h2.3v-1.3H526v-0.6h6.3v0.6h-2.9v1.3h2.3V20h-2.4c0,0.7-0.2,1.4-0.5,2
	l0.1,0.1c1.1,0.5,2.3,0.8,3.5,0.9l-0.2,0.8c-1.2-0.1-2.4-0.5-3.5-1l-0.3-0.2c-0.4,0.3-0.8,0.6-1.2,0.8c-0.6,0.3-1.2,0.5-1.8,0.6
	l-0.4-0.7c1-0.2,1.9-0.6,2.7-1.1c-0.3-0.2-0.5-0.5-0.7-0.7c-0.2-0.3-0.4-0.6-0.6-0.9L527,20.2z M527.1,17.5h1.7v-1.3h-1.7V17.5z
	 M528.8,19.5c0-0.1,0-0.1,0-0.2v-1.2h-1.7v1.4L528.8,19.5z M529.5,16.3v1.2h1.7v-1.3L529.5,16.3z M531.1,19.5v-1.4h-1.7v1.4
	L531.1,19.5z"/>
<path class="st1" d="M565.3,12.2H565c-3.3,0-4.8-1.5-4.8-1.6l-0.3-0.4l-0.3,0.4c0,0-1.6,1.7-5.2,1.6h-0.5v7c0,1.8,0.6,4.5,5.9,6.5
	l0.2,0.1l0.2-0.1c5.3-2,5.9-4.7,5.9-6.5v-7L565.3,12.2z M559.2,21.1l-3.4-3l0.9-0.7l1.8,1.3c1.5-1.5,3.1-2.8,4.9-3.8l0.3,0.4
	C561.9,16.9,560.3,18.9,559.2,21.1L559.2,21.1z"/>
<path class="st2" d="M688,21c-1.7-0.1-3.2,1-3.7,2.6c-0.1,0.3,0.1,0.7,0.5,0.7c0.1,0,0.1,0,0.2,0h6.2c0.3,0,0.6-0.2,0.7-0.6
	c0-0.1,0-0.1,0-0.2C691.2,22,689.7,20.9,688,21z"/>
<path class="st2" d="M693.1,18.1l-4.4-7.1c-0.1-0.1-0.2-0.1-0.3-0.1c-0.1,0-0.1,0.1-0.1,0.2v4.5c0,0.3,0.1,0.6,0.3,0.8
	c0.2,0.2,0.4,0.5,0.4,0.8c0,0.6-0.5,1-1.1,1c-0.6,0-1-0.5-1-1.1c0-0.3,0.1-0.6,0.4-0.8c0.2-0.2,0.3-0.5,0.3-0.8v-4.5
	c0-0.1-0.1-0.2-0.2-0.2c-0.1,0-0.2,0-0.2,0.1l-4.4,7.1c-0.3,0.5-0.3,1,0,1.5l0.8,1.4c0.3,0.4,0.9,0.6,1.3,0.3c0,0,0,0,0.1,0
	c1.7-1.3,4.2-1.3,5.9,0c0.4,0.3,1,0.2,1.3-0.2c0,0,0-0.1,0.1-0.1l0.8-1.4C693.4,19.1,693.4,18.6,693.1,18.1z"/>
<path class="st3" d="M179.6,11.8h9c1.1,0,2,0.9,2,2.1v9c0,1.1-0.9,2-2,2h-9c-1.1,0-2-0.9-2-2v-9C177.6,12.8,178.5,11.9,179.6,11.8z
	 M186.7,16l-0.7,0.8c-0.1,0.1-0.1,0.2,0,0.3l1.5,1.3l-1.5,1.3c-0.1,0.1-0.1,0.2,0,0.3l0.7,0.8c0.1,0.1,0.2,0.1,0.3,0l2.4-2.2
	c0.1-0.1,0.1-0.2,0-0.3L187,16C186.9,15.9,186.8,15.9,186.7,16C186.7,16,186.7,16,186.7,16z M184.6,14.3l-2.3,7.8
	c0,0.1,0,0.2,0.1,0.2l1,0.3c0.1,0,0.2,0,0.2-0.1c0,0,0,0,0,0l2.3-7.8c0-0.1,0-0.2-0.1-0.2c0,0,0,0,0,0l-1-0.3
	C184.7,14.1,184.6,14.2,184.6,14.3C184.5,14.3,184.5,14.3,184.6,14.3L184.6,14.3z M181.3,16l-2.4,2.2c-0.1,0.1-0.1,0.2,0,0.3
	l2.4,2.2c0.1,0.1,0.2,0.1,0.3,0c0,0,0,0,0,0l0.7-0.8c0.1-0.1,0.1-0.2,0-0.3l-1.5-1.3l1.5-1.3c0.1-0.1,0.1-0.2,0-0.3l-0.7-0.8
	C181.5,15.9,181.3,15.9,181.3,16C181.3,16,181.3,16,181.3,16z"/>
<path class="st4" d="M30.5,5.7h16.8c2.6,0,4.7,2.1,4.7,4.7v16.8c0,2.6-2.1,4.7-4.7,4.7H30.5c-2.6,0-4.7-2.1-4.7-4.7V10.3
	C25.8,7.8,27.9,5.7,30.5,5.7z"/>
<path class="st0" d="M31.9,12.4l0.1-0.3l0.2-0.5h-2.1v-1h2.4c0-0.2,0.1-0.3,0.1-0.5s0.1-0.3,0.1-0.5l1.1,0.1c0,0.1-0.1,0.3-0.1,0.4
	l-0.1,0.4h3.7v1h-4c0,0.1,0,0.2-0.1,0.3s0,0.2-0.1,0.3L33,12.4h4.7v1h-5.1c-0.1,0.3-0.2,0.6-0.3,0.8h4.6v1.1
	c-0.5,0.6-1.1,1.1-1.7,1.6l0.7,0.3c0.2,0.1,0.4,0.2,0.6,0.3l-0.4,1c-0.9-0.4-1.8-0.8-2.7-1.1c-0.9-0.3-1.8-0.6-2.8-0.8l0.3-1
	c0.4,0.1,0.8,0.2,1.2,0.3c0.5,0.1,1,0.3,1.6,0.5l0.3,0.1c0.3-0.2,0.5-0.4,0.7-0.6c0.2-0.2,0.5-0.4,0.7-0.6H31v-0.9l0.2-0.4
	c0.1-0.1,0.1-0.3,0.2-0.5h-1.9v-1L31.9,12.4z"/>
<path class="st0" d="M40.7,11.3c0.1,0.2,0.3,0.5,0.4,0.8s0.3,0.6,0.5,1c0.1,0.2,0.2,0.4,0.3,0.7l0.2,0.6V9.8h1.1v7.1h1V9.8h1.1v4.8
	c0.1-0.2,0.2-0.4,0.3-0.6s0.2-0.5,0.3-0.8s0.3-0.8,0.4-1.1s0.2-0.6,0.3-0.9l1.1,0.4c-0.1,0.3-0.2,0.6-0.3,0.9s-0.3,0.7-0.5,1.1
	s-0.4,0.8-0.5,1.1s-0.3,0.6-0.5,0.8l-0.7-0.4v1.7h2.5V18h-8.2v-1.1h2.5v-1.7l-0.8,0.3c0-0.2-0.1-0.3-0.2-0.5S41,14.7,41,14.6
	s-0.1-0.3-0.2-0.5s-0.1-0.3-0.2-0.6c-0.2-0.4-0.3-0.8-0.5-1s-0.3-0.5-0.4-0.8L40.7,11.3z"/>
<path class="st0" d="M29.3,25.3c0.2-0.3,0.4-0.7,0.6-1c0.2-0.4,0.4-0.7,0.6-1.1s0.4-0.8,0.6-1.3c0.2-0.4,0.3-0.8,0.4-1.2l1,0.4
	c-0.1,0.4-0.3,0.7-0.4,1.1s-0.3,0.7-0.4,1v6.3h-1v-4.4l-0.3,0.4c-0.1,0.1-0.2,0.3-0.3,0.5L29.3,25.3z M33.7,23.6c0-0.1,0-0.3,0-0.5
	s0-0.3,0-0.5s0-0.6,0-0.9s0-0.6,0-0.9h1.1c0,0.5,0,1.1,0.1,1.8c0,0.3,0,0.6,0.1,0.8l3-0.3l0.1,1L35,24.5c0.1,0.7,0.2,1.4,0.4,2.1
	c0.1,0.4,0.3,0.8,0.5,1.2c0.1,0.1,0.2,0.2,0.3,0.3c0.1,0,0.2,0.1,0.2,0.1c0.1,0,0.2,0,0.2-0.1c0.1-0.2,0.1-0.4,0.2-0.5
	c0-0.1,0.1-0.3,0.1-0.4s0.1-0.3,0.1-0.4l0.9,0.5c0,0.1,0,0.2-0.1,0.3s0,0.2-0.1,0.3s0,0.2-0.1,0.3s0,0.1-0.1,0.2
	c-0.1,0.3-0.3,0.7-0.5,0.9c-0.2,0.2-0.4,0.2-0.7,0.3c-0.3,0-0.5-0.1-0.7-0.2c-0.3-0.2-0.5-0.5-0.7-0.8c-0.3-0.5-0.5-1-0.7-1.5
	c-0.2-0.8-0.3-1.5-0.4-2.3l-2,0.2l-0.1-1L33.7,23.6z M35.6,21.1l0.4,0.3l0.5,0.4l0.4,0.4c0.1,0.1,0.2,0.2,0.3,0.3l-0.7,0.8l-0.3-0.3
	c-0.1-0.1-0.3-0.3-0.4-0.4c-0.2-0.2-0.5-0.5-0.8-0.7L35.6,21.1z"/>
<path class="st0" d="M39.1,25.1c0.2-0.3,0.4-0.7,0.5-1s0.3-0.7,0.5-1.1s0.3-0.7,0.4-1.1s0.2-0.7,0.3-1.1l1,0.2
	c-0.1,0.4-0.2,0.7-0.3,1.1s-0.2,0.6-0.3,1v6.3h-0.9v-4.3l-0.1,0.3c0,0.1-0.1,0.2-0.1,0.3L39.1,25.1z M42.5,22.4v-1.5h1v1.5h1v1h-1
	v1.4h0.8L44,24.5c0.2-0.3,0.3-0.5,0.4-0.8c0.1-0.3,0.3-0.6,0.4-1s0.2-0.6,0.3-1s0.2-0.7,0.2-1l0.9,0.2c0,0.2-0.1,0.4-0.1,0.6
	S46,22,46,22.2h2v1h-0.6c-0.1,0.6-0.1,1.2-0.3,1.9c-0.1,0.5-0.3,1-0.4,1.5l-0.1,0.3c0.2,0.4,0.5,0.7,0.7,1c0.3,0.3,0.6,0.6,0.9,0.9
	l-0.7,0.8c-0.3-0.3-0.6-0.6-0.8-0.9c-0.2-0.3-0.5-0.6-0.7-0.9c-0.5,0.7-1,1.3-1.6,1.8l-0.7-0.8l0.2-0.2h-2.2v-4h0.9v-1.4h-1v-1
	L42.5,22.4z M42.5,27.7h0.9v-2h-0.9V27.7z M44.3,24.7v3.5c0.4-0.4,0.8-0.9,1.1-1.4c-0.1-0.3-0.2-0.6-0.3-0.9
	c-0.1-0.3-0.2-0.7-0.3-1.1L44.7,25L44.3,24.7z M45.6,23.2c0,0.1,0,0.1-0.1,0.2l-0.1,0.2c0,0.4,0.1,0.8,0.2,1.1
	c0.1,0.3,0.2,0.7,0.3,1c0.3-0.8,0.5-1.7,0.5-2.6L45.6,23.2z"/>
<path class="st5" d="M73.1,24.6c1-0.9,1.8-2,2.4-3.1c-0.2-0.5-0.3-0.9-0.5-1.4c-0.1-0.5-0.2-1.1-0.3-1.7l-0.2,0.3L74,18.2v0.7h-5
	v-1.4h4.7c0.1-0.1,0.1-0.3,0.2-0.4l0.2-0.4h-4.8l0,0c-0.1,0.3-0.3,0.5-0.4,0.8l-0.4,0.7v6.4c0.2-0.2,0.4-0.4,0.5-0.6
	c0.1-0.2,0.2-0.4,0.3-0.6c0.2-0.6,0.3-1.2,0.2-1.8v-1.8h4V22c0.1-0.1,0.2-0.2,0.3-0.3l0.4-0.4l0.4,1.4c-0.1,0.1-0.2,0.2-0.3,0.3
	l-0.5,0.5c-0.2,0.2-0.4,0.3-0.6,0.5s-0.3,0.3-0.5,0.4l-0.8-0.9c0.1-0.1,0.2-0.2,0.2-0.4c0-0.1,0-0.2,0-0.3v-1.6H71v0.6
	c0,0.3,0,0.7-0.1,1c0,0.3-0.1,0.6-0.2,0.9c-0.1,0.3-0.2,0.6-0.4,0.8c-0.2,0.3-0.4,0.7-0.7,1l-1.1-0.7v0.6h-1.4v-5l-0.2,0.3l-0.2,0.3
	l-1-1c0.2-0.3,0.5-0.7,0.7-1s0.5-0.8,0.7-1.1s0.4-0.8,0.6-1.2s0.4-0.8,0.5-1.1l1.1,0.6v-2.8c-0.1,0.2-0.3,0.5-0.4,0.7
	s-0.3,0.5-0.5,0.7c-0.5,0.7-1,1.3-1.5,1.9l-1.1-1c0.5-0.6,1-1.1,1.4-1.8c0.4-0.6,0.8-1.2,1.1-1.9l1.3,0.8l-0.2,0.3h1.2v2.2h0.6V12
	h1.2v3.3h0.6v-2.2h1.3v3.2c0.3-0.7,0.5-1.5,0.7-2.2c0.2-0.7,0.3-1.4,0.4-2.1l1.4,0.3c-0.1,0.4-0.1,0.7-0.2,1s-0.2,0.7-0.3,1H79v1.5
	h-0.6c-0.1,1.8-0.5,3.7-1.1,5.4l-0.2,0.4c0.3,0.5,0.6,1,0.9,1.5c0.4,0.5,0.7,0.9,1.2,1.3l-1.1,1c-0.4-0.4-0.7-0.8-1-1.2
	c-0.3-0.4-0.6-0.7-0.8-1.1c-0.3,0.4-0.6,0.8-0.9,1.2c-0.3,0.4-0.7,0.9-1.1,1.3L73.1,24.6z M76.4,19.6c0.2-0.6,0.3-1.2,0.5-1.8
	c0.1-0.6,0.2-1.3,0.3-2h-1.3L75.8,16c0,0.7,0.1,1.3,0.2,1.9C76.1,18.5,76.2,19,76.4,19.6L76.4,19.6z"/>
<path class="st5" d="M89.9,12c0.1,0.2,0.1,0.3,0.2,0.5c0.1,0.2,0.1,0.4,0.2,0.6l0.1,0.3h3.8v1.5h-9.4v-1.2l-0.3,1
	c-0.1,0.3-0.2,0.6-0.4,0.9v9.9h-1.6v-6.7l-0.4,0.7l-1.4-1c0.6-1,1.2-2.1,1.6-3.2c0.3-0.6,0.5-1.2,0.7-1.7c0.2-0.5,0.4-1.1,0.5-1.6
	l1.6,0.4L85,12.9c0,0.2-0.1,0.4-0.2,0.5h3.8l-0.1-0.2c-0.1-0.2-0.1-0.4-0.2-0.6s-0.1-0.3-0.2-0.4L89.9,12z M93.3,20.1V25h-7.9v-4.9
	H93.3z M93,15.8v1.3h-7.4v-1.3H93z M93,17.9v1.4h-7.4v-1.4H93z M87,23.6h4.6v-2H87V23.6z"/>
<path class="st5" d="M111.8,24.8l-2.1-3.5l-2,3.5h-2l2.9-4.4l-2.9-4.3h2.2l1.9,3.3l2-3.3h2l-2.8,4.3l2.9,4.4H111.8z"/>
<path class="st5" d="M117,12.7c0.3,0,0.6,0.1,0.8,0.3c0.2,0.2,0.3,0.5,0.3,0.8c0,0.3-0.1,0.6-0.3,0.8c-0.2,0.2-0.5,0.3-0.8,0.3
	c-0.3,0-0.6-0.1-0.8-0.3c-0.2-0.2-0.3-0.5-0.3-0.8c0-0.3,0.1-0.6,0.3-0.8C116.4,12.8,116.7,12.7,117,12.7z M117.9,16v8.7h-1.8V16
	H117.9z"/>
<path class="st5" d="M127.2,24.8c-0.1-0.5-0.1-0.9-0.1-1.4c-1,1.6-3.1,2.1-4.7,1.1c0,0-0.1,0-0.1-0.1c-0.6-0.4-1-0.9-1.3-1.6
	c-0.3-0.7-0.5-1.6-0.5-2.4c0-0.8,0.2-1.6,0.5-2.4c0.3-0.6,0.7-1.2,1.3-1.6c0.6-0.4,1.2-0.6,1.9-0.6c0.5,0,1.1,0.1,1.6,0.4
	c0.5,0.2,0.9,0.6,1.2,1v-4.8h1.8v10.3c0,0.8,0,1.4,0.1,2L127.2,24.8z M126.9,20.4c0-0.6-0.1-1.1-0.3-1.6c-0.2-0.4-0.4-0.8-0.8-1.1
	c-0.7-0.5-1.7-0.5-2.4,0c-0.4,0.3-0.6,0.7-0.8,1.1c-0.4,1.1-0.4,2.2,0,3.3c0.2,0.4,0.4,0.8,0.8,1.1c0.7,0.5,1.7,0.5,2.4,0
	c0.4-0.3,0.7-0.7,0.8-1.1C126.8,21.5,126.9,21,126.9,20.4z"/>
<path class="st5" d="M143.5,16l-2.4,8.7h-2l-1.9-7.1l-1.9,7.1h-2l-2.4-8.7h1.8l1.6,7.1l1.9-7.1h2.1l1.9,7.1l1.6-7.1H143.5z"/>
<path class="st5" d="M153.3,13v1.2l-4.1,10.6h-1.9l4.3-10.3h-5.9V13H153.3z"/>
<path d="M704.2,20.6c0,0.5-0.1,1-0.4,1.5c-0.2,0.4-0.6,0.8-1,1c-0.4,0.2-0.9,0.4-1.4,0.4c-0.5,0-1-0.1-1.4-0.4c-0.4-0.2-0.8-0.6-1-1
	c-0.2-0.5-0.4-1-0.3-1.5c0-0.6,0.1-1.2,0.3-1.8c0.3-0.7,0.7-1.4,1.2-2.1l1.7-2.5h0.9l-2,2.9c-0.3,0.5-0.6,0.9-0.9,1.4
	c0.4-0.4,1-0.6,1.6-0.6c0.5,0,1,0.1,1.4,0.4c0.4,0.2,0.8,0.6,1,1C704.2,19.6,704.3,20.1,704.2,20.6z M703.4,20.6
	c0-0.6-0.2-1.1-0.5-1.5c-0.4-0.4-0.9-0.6-1.5-0.6c-0.5,0-1.1,0.2-1.5,0.6c-0.4,0.4-0.6,0.9-0.5,1.5c0,0.6,0.2,1.1,0.6,1.5
	c0.4,0.4,0.9,0.6,1.5,0.6c0.5,0,1.1-0.2,1.4-0.6C703.3,21.7,703.5,21.1,703.4,20.6z"/>
<path d="M705.8,16.8c0.6-0.6,1.1-1.2,1.6-1.9c0.5-0.7,0.9-1.4,1.2-2.1l0.7,0.3l-0.5,0.9h7.2v0.8h-4v2.1h3.7v0.7H712v2.5h4.4v0.8H712
	v2.8h-0.7v-2.8h-5.4v-0.8h1.8v-3.3h3.6v-2.1h-2.9c-0.3,0.5-0.6,0.9-0.9,1.3c-0.3,0.5-0.7,0.9-1.1,1.3L705.8,16.8z M708.4,20.1h2.9
	v-2.5h-2.9L708.4,20.1z"/>
<path d="M721.5,16.7l0.2-0.6l0.2-0.5c0.1-0.1,0.1-0.3,0.2-0.5h-3v-0.7h3.2c0.1-0.3,0.1-0.5,0.2-0.8s0.1-0.5,0.2-0.7l0.8,0.1
	c-0.1,0.5-0.2,0.9-0.3,1.4h5v0.7h-5.2c0,0.2-0.1,0.3-0.1,0.5s-0.1,0.3-0.1,0.5c0,0.2-0.1,0.2-0.1,0.3c0,0.1-0.1,0.2-0.1,0.3h6.4v0.7
	H722c-0.1,0.3-0.2,0.5-0.3,0.8l-0.3,0.7h5.8v0.8c-0.4,0.4-0.8,0.9-1.1,1.3c-0.4,0.4-0.8,0.8-1.2,1.2c0.7,0.3,1.5,0.6,2.2,1l-0.4,0.7
	c-0.5-0.3-1-0.5-1.5-0.8c-0.6-0.2-1.2-0.5-1.9-0.8s-1.4-0.5-2-0.8s-1.1-0.4-1.6-0.5l0.3-0.7c0.5,0.1,1,0.3,1.6,0.5s1.2,0.5,2,0.7
	l0.5,0.2c0.8-0.7,1.5-1.4,2.1-2.2h-5.7V19l0.3-0.8c0.1-0.3,0.2-0.6,0.3-0.9h-2.9v-0.7L721.5,16.7z"/>
<path d="M733.9,22.4v-9.3h0.8v9.3h1.9v-9.3h0.8v9.3h3.5v0.8h-10.4v-0.8H733.9z M731.5,15.1c0.2,0.3,0.3,0.6,0.5,1s0.4,0.9,0.6,1.4
	c0.4,0.8,0.7,1.7,0.9,2.5l-0.8,0.3c-0.1-0.4-0.2-0.7-0.3-1.1c-0.2-0.4-0.3-0.9-0.5-1.4c-0.3-0.8-0.7-1.6-1.1-2.4L731.5,15.1z
	 M737.7,20c0.2-0.3,0.4-0.7,0.6-1.2s0.4-0.9,0.6-1.3s0.4-0.9,0.5-1.3c0.2-0.4,0.3-0.8,0.4-1.1l0.8,0.3c-0.2,0.4-0.3,0.9-0.5,1.3
	s-0.3,0.9-0.5,1.3s-0.4,0.9-0.6,1.3s-0.4,0.8-0.6,1.2L737.7,20z"/>
<path d="M742.4,18.9c0.3-0.4,0.6-0.8,0.8-1.3s0.5-1,0.8-1.5c0.3-0.5,0.5-1.1,0.7-1.6s0.4-1.1,0.6-1.6l0.8,0.3
	c-0.2,0.5-0.3,0.9-0.5,1.3s-0.4,0.9-0.6,1.3v8h-0.8v-6.5c-0.4,0.7-0.8,1.4-1.3,2.1L742.4,18.9z M748.1,16.7c0-0.2,0-0.5,0-0.7
	l-0.1-0.7c0-0.5,0-0.9-0.1-1.3s0-0.7,0-1h0.8c0,0.6,0,1.4,0.1,2.3c0,0.2,0,0.5,0,0.7c0,0.2,0,0.4,0,0.6l4.1-0.4v0.8l-4,0.4
	c0.1,1,0.3,2,0.6,3c0.2,0.6,0.4,1.2,0.8,1.7c0.1,0.2,0.3,0.3,0.5,0.5c0.1,0.1,0.3,0.1,0.4,0.1c0.1,0,0.2,0,0.3-0.1
	c0.1-0.1,0.2-0.2,0.2-0.3c0.1-0.2,0.2-0.4,0.3-0.6c0.1-0.3,0.2-0.6,0.3-1l0.7,0.4c-0.2,0.5-0.3,1-0.4,1.3c-0.1,0.3-0.2,0.5-0.4,0.8
	c-0.1,0.2-0.2,0.3-0.4,0.4c-0.1,0.1-0.3,0.1-0.5,0.1c-0.3,0-0.5-0.1-0.8-0.2c-0.3-0.2-0.6-0.5-0.8-0.8c-0.4-0.6-0.7-1.3-0.9-2
	c-0.3-1-0.5-2.1-0.6-3.2l-2.7,0.2l-0.1-0.8L748.1,16.7z M750.1,13.4c0.2,0.1,0.3,0.2,0.5,0.4l0.6,0.5c0.4,0.3,0.7,0.6,1,0.9
	l-0.5,0.6c-0.1-0.1-0.3-0.3-0.4-0.4l-0.5-0.5c-0.3-0.3-0.6-0.6-1-0.9L750.1,13.4z"/>
<path d="M754.5,18.4c0.4-0.8,0.8-1.7,1.1-2.5c0.2-0.5,0.3-0.9,0.5-1.4s0.3-0.9,0.4-1.4l0.8,0.2c-0.1,0.4-0.2,0.9-0.4,1.3
	s-0.3,0.8-0.4,1.2v8.2h-0.7v-6.4c-0.1,0.2-0.2,0.5-0.3,0.7s-0.2,0.5-0.3,0.7L754.5,18.4z M758.7,15.2V13h0.7v2.2h1.6v0.7h-1.6v2.3
	h1.2v4.5h-3v-4.5h1.2v-2.2h-1.6v-0.7L758.7,15.2z M758.2,22h1.7v-3h-1.7V22z M760,23.3c0.5-0.4,1-0.9,1.4-1.3c0.4-0.4,0.7-0.9,1-1.3
	v-0.1c-0.5-1-0.8-2.1-0.9-3.2l-0.4,0.8l-0.6-0.4c0.4-0.8,0.8-1.6,1.1-2.4c0.3-0.8,0.5-1.6,0.7-2.4l0.7,0.1c-0.1,0.3-0.2,0.7-0.2,1
	s-0.2,0.7-0.3,1h2.9v0.7h-0.9c-0.1,0.8-0.2,1.7-0.4,2.5c-0.1,0.7-0.3,1.4-0.6,2c0,0.1-0.1,0.2-0.1,0.3l-0.1,0.3
	c0.3,0.5,0.6,0.9,1,1.3c0.4,0.4,0.8,0.9,1.3,1.3l-0.5,0.6c-0.8-0.7-1.5-1.6-2.1-2.5c-0.3,0.4-0.6,0.8-1,1.2
	c-0.4,0.4-0.8,0.8-1.3,1.3L760,23.3z M762.2,15.8c0,0.1-0.1,0.2-0.1,0.3l-0.1,0.3c0.1,1.2,0.4,2.4,0.9,3.6c0.3-0.6,0.5-1.2,0.6-1.8
	c0.2-0.8,0.3-1.6,0.3-2.4L762.2,15.8z"/>
<path d="M780.6,16.9c0,0.5-0.1,1-0.3,1.5c-0.2,0.4-0.6,0.8-1,1c-0.5,0.2-1,0.4-1.5,0.4H776v3.6h-0.8v-9.2h2.7c0.5,0,1,0.1,1.5,0.3
	c0.4,0.2,0.8,0.6,1,1C780.5,15.9,780.6,16.4,780.6,16.9z M779.7,16.9c0-0.6-0.2-1.1-0.5-1.5c-0.4-0.4-0.9-0.6-1.5-0.5H776v4.1h1.7
	c0.5,0,1.1-0.2,1.5-0.5C779.6,18,779.8,17.4,779.7,16.9L779.7,16.9z"/>
<path d="M782.4,18.2c0-0.3,0.1-0.7,0.3-0.9c0.2-0.3,0.5-0.5,0.8-0.6c0.3-0.2,0.7-0.2,1.1-0.2c0.5,0,1,0.1,1.4,0.4
	c0.4,0.2,0.6,0.6,0.7,1l-0.7,0.3c-0.1-0.3-0.2-0.6-0.5-0.7c-0.3-0.2-0.7-0.3-1-0.2c-0.4,0-0.7,0.1-1,0.3c-0.2,0.2-0.4,0.5-0.4,0.8
	c0,0.3,0.1,0.6,0.3,0.7c0.4,0.2,0.8,0.4,1.2,0.4c0.6,0.1,1.2,0.3,1.6,0.7c0.6,0.7,0.7,1.6,0.2,2.4c-0.2,0.3-0.5,0.5-0.8,0.7
	c-0.9,0.4-1.9,0.3-2.7-0.1c-0.4-0.3-0.7-0.7-0.8-1.2l0.7-0.3c0.1,0.4,0.3,0.7,0.6,0.9c0.4,0.2,0.8,0.3,1.2,0.3
	c0.4,0,0.8-0.1,1.1-0.3c0.5-0.5,0.6-1.3,0.1-1.8c0,0,0,0,0,0c-0.4-0.3-0.8-0.4-1.3-0.5c-0.6-0.1-1.1-0.3-1.6-0.6
	C782.6,19.2,782.4,18.7,782.4,18.2z"/>
<path d="M793.6,23.2c-0.1-0.5-0.1-0.9-0.1-1.4c-0.2,0.4-0.5,0.8-0.9,1.1c-0.4,0.3-0.9,0.4-1.3,0.4c-0.5,0-1-0.1-1.4-0.4
	c-0.4-0.3-0.8-0.7-1-1.2c-0.5-1.2-0.5-2.4,0-3.6c0.2-0.5,0.6-0.9,1-1.2c0.8-0.6,1.9-0.6,2.7-0.1c0.4,0.2,0.7,0.6,0.9,1v-4.1h0.8v8
	c0,0.6,0,1.1,0,1.6L793.6,23.2z M793.5,19.9c0-0.5-0.1-1-0.3-1.5c-0.1-0.4-0.4-0.7-0.7-1c-0.6-0.5-1.5-0.5-2.1,0
	c-0.3,0.3-0.6,0.6-0.7,1c-0.2,0.5-0.3,1-0.3,1.5c0,0.5,0.1,1,0.3,1.4c0.1,0.4,0.4,0.7,0.7,1c0.3,0.2,0.7,0.4,1.1,0.4
	c0.4,0,0.8-0.1,1.1-0.4c0.3-0.3,0.6-0.6,0.7-1C793.4,20.9,793.5,20.4,793.5,19.9z"/>
<path d="M803.2,14.1v9.2h-0.8v-4.4h-5v4.4h-0.8v-9.2h0.8v4h5v-4H803.2z"/>
<path d="M807,17.3v4.5c0,0.3,0.1,0.5,0.3,0.7c0.2,0.2,0.5,0.3,0.7,0.3c0.2,0,0.5,0,0.7-0.1v0.7c-0.3,0.1-0.5,0.1-0.8,0.1
	c-0.5,0-0.9-0.1-1.2-0.4c-0.3-0.3-0.5-0.7-0.5-1.2v-4.5h-1.1v-0.7h1.1v-1.7h0.8v1.7h1.7v0.7H807z"/>
<path d="M819.5,18.6v4.7h-0.8v-4.6c0-0.4-0.1-0.8-0.4-1.1c-0.3-0.3-0.7-0.4-1.1-0.4c-0.5,0-1,0.2-1.3,0.6c-0.3,0.4-0.5,1-0.5,1.5v4
	h-0.8v-4.6c0-0.4-0.1-0.8-0.4-1.1c-0.3-0.3-0.7-0.4-1.1-0.4c-0.5,0-1,0.2-1.3,0.6c-0.4,0.4-0.5,1-0.5,1.5v4h-0.8v-5.1
	c0-0.7,0-1.2,0-1.6h0.7c0,0.2,0,0.6,0,1.2c0.2-0.4,0.5-0.8,0.9-1c0.4-0.2,0.8-0.3,1.3-0.3c0.4,0,0.9,0.1,1.2,0.4
	c0.3,0.2,0.6,0.6,0.7,1c0.4-0.8,1.2-1.4,2.1-1.3c0.6,0,1.1,0.2,1.5,0.6C819.3,17.5,819.5,18,819.5,18.6z"/>
<path d="M822.6,13.7v9.5h-0.8v-9.5H822.6z"/>
<path d="M825.6,22.1c0.2,0,0.3,0,0.5,0.2c0.1,0.1,0.2,0.3,0.2,0.5c0,0.2-0.1,0.3-0.2,0.4c-0.1,0.1-0.3,0.2-0.5,0.2
	c-0.3,0-0.6-0.2-0.6-0.5c0,0,0-0.1,0-0.1c0-0.2,0-0.3,0.2-0.5C825.3,22.2,825.5,22.1,825.6,22.1z"/>
<path d="M832.1,22.6c1,0.1,2-0.6,2.3-1.6l0.7,0.3c-0.2,0.6-0.5,1.1-1,1.5c-0.6,0.4-1.3,0.6-1.9,0.6c-0.7,0-1.4-0.2-2-0.6
	c-0.6-0.4-1.1-1-1.3-1.7c-0.3-0.8-0.5-1.6-0.5-2.5c0-0.8,0.1-1.7,0.5-2.5c0.3-0.7,0.7-1.2,1.3-1.7c0.6-0.4,1.3-0.6,2-0.6
	c0.7,0,1.4,0.2,1.9,0.6c0.5,0.4,0.8,0.9,1,1.5l-0.7,0.3c-0.2-1-1.2-1.7-2.3-1.6c-0.5,0-1.1,0.2-1.5,0.5c-0.5,0.4-0.8,0.8-1,1.4
	c-0.3,0.7-0.4,1.4-0.4,2.1c0,0.7,0.1,1.4,0.4,2.1c0.2,0.6,0.5,1,1,1.4C831,22.5,831.5,22.6,832.1,22.6z"/>
<path d="M843.6,14.1v9.2H843l-5.2-7.8v7.8H837v-9.2h1l4.9,7.4v-7.4H843.6z"/>
<path d="M855.4,13.7v8.5c0,0.2,0,0.4,0,0.6c0,0.2-0.1,0.3-0.1,0.4c-0.1,0.1-0.2,0.2-0.4,0.3c-0.2,0.1-0.4,0.1-0.7,0.2h-0.6h-0.8
	l-0.2-0.9h0.9h0.6c0.1,0,0.2,0,0.3,0c0.1,0,0.1-0.1,0.2-0.1c0-0.1,0.1-0.2,0.1-0.3c0-0.1,0-0.3,0-0.5v-7.5h-7.6v9.4h-0.7V13.7H855.4
	z M847.2,21.8c0.3-0.5,0.6-1,0.9-1.5s0.6-1,0.8-1.6l0.1-0.3v-0.1c-0.3-0.5-0.5-1-0.8-1.5s-0.5-0.8-0.7-1.1l0.6-0.4
	c0.5,0.7,0.9,1.4,1.3,2.2c0.2-0.4,0.3-0.8,0.5-1.2s0.3-0.8,0.4-1.2l0.7,0.2c-0.2,0.5-0.4,1-0.6,1.5s-0.4,1-0.6,1.5
	c0.2,0.5,0.4,0.9,0.6,1.3s0.3,0.7,0.4,1l-0.6,0.3c-0.1-0.3-0.2-0.6-0.3-0.8c-0.1-0.3-0.3-0.6-0.4-1c-0.3,0.5-0.5,1.1-0.8,1.5
	s-0.5,1-0.8,1.4L847.2,21.8z M850.3,22c0.4-0.6,0.7-1.1,1-1.7s0.6-1.2,0.9-1.8c-0.4-0.8-0.8-1.5-1.3-2.3l0.6-0.4
	c0.2,0.2,0.3,0.5,0.5,0.8s0.4,0.6,0.6,1c0.3-0.8,0.6-1.6,0.9-2.4l0.7,0.2c-0.3,1-0.7,2-1.2,3c0,0,0,0.1,0,0.1c0.5,0.9,1,1.9,1.3,2.9
	l-0.6,0.3c-0.1-0.3-0.3-0.7-0.5-1.1s-0.4-0.9-0.7-1.4c-0.3,0.5-0.5,1.1-0.8,1.6s-0.6,1-1,1.5L850.3,22z"/>
<path d="M857.6,22.1l1-0.1l1.3-0.2h0.1c0.1-0.3,0.2-0.7,0.3-1.1s0.2-0.9,0.3-1.5s0.2-1.1,0.3-1.6s0.1-0.9,0.2-1.2l0.7,0.1
	c0,0.4-0.1,0.8-0.2,1.2s-0.2,1-0.3,1.6s-0.2,0.9-0.3,1.3s-0.2,0.7-0.3,1l0.8-0.2c0.2,0,0.4-0.1,0.7-0.2l0.1,0.8
	c-0.3,0.1-0.6,0.2-1,0.3s-0.8,0.2-1.3,0.3l-1.3,0.2c-0.4,0.1-0.7,0.1-1,0.1L857.6,22.1z M862.6,15v0.7h-4.7V15L862.6,15z M859,16.3
	c0.1,0.2,0.1,0.5,0.2,0.9s0.2,0.7,0.3,1.1s0.2,0.8,0.2,1.2s0.1,0.8,0.2,1.1l-0.7,0.1c0-0.3-0.1-0.7-0.2-1s-0.1-0.7-0.2-1.1
	s-0.2-0.7-0.3-1.1s-0.2-0.7-0.3-1L859,16.3z M860.1,12.7c0.1,0.1,0.1,0.3,0.2,0.4s0.1,0.3,0.2,0.5s0.1,0.3,0.2,0.5s0.1,0.3,0.1,0.5
	l-0.7,0.2c-0.1-0.3-0.2-0.6-0.3-1c-0.1-0.3-0.2-0.6-0.4-0.9L860.1,12.7z M865.2,13v2h3.1v0.7h-3.1v2.5h2.3v5.2h-5v-5.2h1.8V13
	L865.2,13z M863.4,22.8h3.5V19h-3.5V22.8z"/>
<path d="M876.9,22.8h0.6c0.2,0,0.4,0,0.6,0c0.2,0,0.4,0,0.5-0.1c0.1-0.2,0.2-0.3,0.1-0.5v-1.9h-3.1v3.4H875v-3.4h-3.1
	c0,0.4,0,0.7-0.1,1.1c0,0.3-0.1,0.6-0.2,0.9c-0.1,0.3-0.2,0.6-0.4,0.9c-0.2,0.3-0.4,0.6-0.6,0.9l-0.7-0.4c0.2-0.3,0.5-0.6,0.6-1
	c0.2-0.3,0.3-0.7,0.4-1c0.1-0.4,0.2-0.7,0.2-1.1c0-0.4,0-0.9,0-1.4v-5.4h8.4v8.6c0,0.2,0,0.4,0,0.6c0,0.1-0.1,0.3-0.2,0.4
	c-0.1,0.1-0.2,0.2-0.3,0.3c-0.2,0.1-0.3,0.1-0.5,0.1c-0.1,0-0.2,0-0.3,0h-0.4h-0.7L876.9,22.8z M871.9,16.6h3.1v-2.2h-3.1V16.6z
	 M871.9,19.5h3.1v-2.1h-3.1V19.5z M875.7,14.4v2.2h3.1v-2.2L875.7,14.4z M875.7,19.5h3.1v-2.1h-3.1V19.5z"/>
<path d="M882,23.5c0.5-0.7,0.9-1.5,1.2-2.4c0.2-1.1,0.3-2.3,0.3-3.5v-3.1h3.9c-0.1-0.3-0.2-0.5-0.3-0.8c-0.1-0.3-0.2-0.5-0.3-0.6
	l0.8-0.3l0.2,0.3l0.2,0.4c0.1,0.2,0.1,0.3,0.2,0.5c0.1,0.2,0.1,0.3,0.2,0.5h3.5v4.3h-7.5c0,0.5-0.1,1-0.1,1.4c0,0.4-0.1,0.7-0.2,1.1
	c-0.1,0.4-0.3,0.9-0.5,1.3c-0.2,0.5-0.5,0.9-0.8,1.4L882,23.5z M884.3,17.5v0.3c0,0.1,0,0.2,0,0.3h6.7v-2.9h-6.7L884.3,17.5z"/>
<path d="M896.6,17v-1.8h-1.9v-0.7h1.9V13h0.7v1.5h1.7v0.7h-1.7V17h1.7v0.7h-1.4v1.9h1.4v0.7h-1.5v1.9c0.3,0.1,0.6,0.2,0.9,0.3
	c0.4,0.1,0.7,0.1,1.1,0.1h1.2h1.2h1.4c0.5,0,1-0.1,1.6-0.1l-0.1,0.8l-1.5,0.1h-1.4c-0.4,0-0.8,0-1.2,0l-1.2,0
	c-0.4,0-0.8-0.1-1.2-0.2c-0.4-0.1-0.7-0.2-1.1-0.4c-0.3-0.2-0.6-0.4-0.9-0.6c-0.3-0.3-0.5-0.6-0.7-1c-0.1,0.5-0.2,0.9-0.3,1.3
	c-0.1,0.4-0.3,0.8-0.5,1.2l-0.7-0.3c0.2-0.4,0.3-0.8,0.5-1.1c0.1-0.4,0.2-0.8,0.3-1.2c0.1-0.4,0.1-0.9,0.2-1.3c0-0.5,0-0.9,0-1.4
	h0.7c0,0.3,0,0.6,0,0.9s0,0.6-0.1,0.9c0.2,0.6,0.6,1.2,1.1,1.6v-4.1h-2.5V17H896.6z M901.5,16.6h0.5c0.2,0,0.4,0,0.5,0h0.3
	c0.1,0,0.1,0,0.2-0.1c0,0,0.1-0.1,0.1-0.2c0-0.1,0-0.2,0-0.3c0-0.3,0-0.6,0.1-0.9s0-0.6,0-0.9h-1.8c0,0.3-0.1,0.6-0.1,0.9
	c-0.1,0.3-0.2,0.6-0.3,0.9c-0.1,0.3-0.3,0.6-0.5,0.9c-0.3,0.3-0.5,0.6-0.8,0.9l-0.5-0.5c0.2-0.2,0.5-0.4,0.7-0.7
	c0.2-0.2,0.3-0.4,0.5-0.7c0.1-0.2,0.2-0.5,0.3-0.8c0.1-0.3,0.1-0.6,0.2-0.9H899v-0.7h5c0,0.6,0,1.1-0.1,1.5s-0.1,0.8-0.1,1.1
	c0,0.2,0,0.3-0.1,0.5c0,0.1-0.1,0.2-0.2,0.3c-0.1,0.1-0.2,0.2-0.3,0.2c-0.1,0-0.3,0.1-0.5,0.1l-0.6,0c-0.2,0-0.4,0-0.6,0L901.5,16.6
	z M903.9,18.1v3.6h-4.3v-3.6L903.9,18.1z M900.3,21h2.9v-2.2h-2.9V21z"/>
<path d="M909.1,23.2h-0.8v-8.2l-1.9,1.1v-0.9l2.1-1.3h0.6L909.1,23.2z"/>
<path d="M914.4,23.2h-0.8v-8.2l-1.9,1.1v-0.9l2.1-1.3h0.6L914.4,23.2z"/>
<path d="M919.9,23.4c-0.9,0-1.8-0.4-2.3-1.2c-0.6-1.1-0.8-2.3-0.8-3.5c-0.1-1.2,0.2-2.4,0.8-3.5c0.5-0.8,1.3-1.2,2.3-1.2
	c0.9,0,1.8,0.4,2.2,1.2c0.6,1.1,0.9,2.3,0.8,3.5c0.1,1.2-0.2,2.4-0.8,3.5C921.7,23,920.8,23.4,919.9,23.4z M919.9,22.7
	c0.7,0,1.3-0.4,1.7-1c0.4-0.9,0.6-2,0.6-3c0.1-1-0.1-2.1-0.6-3c-0.5-0.9-1.6-1.3-2.5-0.8c-0.4,0.2-0.6,0.5-0.8,0.8
	c-0.4,0.9-0.6,2-0.6,3c-0.1,1,0.1,2.1,0.6,3C918.6,22.3,919.2,22.7,919.9,22.7z"/>
<path d="M927.6,23.4c-0.9,0-1.8-0.4-2.2-1.2c-0.6-1.1-0.8-2.3-0.8-3.5c-0.1-1.2,0.2-2.4,0.8-3.5c0.8-1.2,2.4-1.6,3.7-0.8
	c0.3,0.2,0.6,0.5,0.8,0.8c0.6,1.1,0.9,2.3,0.8,3.5c0.1,1.2-0.2,2.4-0.8,3.5C929.3,22.9,928.5,23.4,927.6,23.4z M927.6,22.7
	c0.7,0,1.3-0.4,1.7-1c0.4-0.9,0.6-2,0.6-3c0.1-1-0.1-2.1-0.6-3c-0.5-0.9-1.6-1.3-2.5-0.8c-0.4,0.2-0.6,0.5-0.8,0.8
	c-0.4,0.9-0.6,2-0.6,3c-0.1,1,0.1,2.1,0.6,3C926.2,22.3,926.9,22.7,927.6,22.7z"/>
<path d="M935.2,23.4c-0.9,0-1.7-0.5-2.2-1.2c-0.6-1.1-0.8-2.3-0.8-3.5c-0.1-1.2,0.2-2.4,0.8-3.5c0.8-1.2,2.4-1.6,3.7-0.8
	c0.3,0.2,0.6,0.5,0.8,0.8c0.6,1.1,0.9,2.3,0.8,3.5c0.1,1.2-0.2,2.4-0.8,3.5C937,23,936.1,23.4,935.2,23.4z M935.2,22.7
	c0.7,0,1.3-0.4,1.7-1c0.4-0.9,0.6-2,0.6-3c0.1-1-0.1-2.1-0.6-3c-0.5-0.9-1.6-1.3-2.5-0.8c-0.3,0.2-0.6,0.5-0.8,0.8
	c-0.4,0.9-0.6,2-0.5,3c-0.1,1,0.1,2.1,0.5,3C933.9,22.3,934.5,22.7,935.2,22.7z"/>
<path d="M942.8,23.4c-0.9,0-1.8-0.4-2.3-1.2c-0.6-1.1-0.8-2.3-0.8-3.5c-0.1-1.2,0.2-2.4,0.8-3.5c0.8-1.2,2.4-1.6,3.7-0.8
	c0.3,0.2,0.6,0.5,0.8,0.8c0.6,1.1,0.9,2.3,0.8,3.5c0.1,1.2-0.2,2.4-0.8,3.5C944.6,22.9,943.7,23.4,942.8,23.4z M942.8,22.7
	c0.7,0,1.3-0.4,1.7-1c0.4-0.9,0.6-2,0.6-3c0.1-1-0.1-2.1-0.6-3c-0.5-0.9-1.6-1.3-2.5-0.8c-0.4,0.2-0.6,0.5-0.8,0.8
	c-0.4,0.9-0.6,2-0.6,3c-0.1,1,0.1,2.1,0.6,3C941.5,22.3,942.1,22.7,942.8,22.7z"/>
<path d="M947.6,23.1c0.8-0.6,1.5-1.2,2.2-1.9c0.6-0.6,1-1.3,1.4-2c0.4-0.7,0.6-1.4,0.8-2.2c0.2-0.9,0.3-1.8,0.3-2.7
	c0-0.3,0-0.5,0-0.6v-0.5h0.8v1.4v0.2c0,0.1,0,0.1,0,0.2c0.1,1.6,0.6,3.2,1.5,4.6c0.9,1.4,2.1,2.6,3.4,3.6l-0.6,0.7
	c-1.5-1.2-2.7-2.6-3.7-4.3c-0.4-0.7-0.7-1.5-0.9-2.3c-0.4,1.7-1.2,3.2-2.3,4.4c-0.7,0.7-1.4,1.4-2.2,2L947.6,23.1z"/>
<path class="st5" d="M102.8,23.3c-0.2,0-0.3-0.1-0.4-0.2c-0.1-0.1-0.2-0.3-0.2-0.6l0.1-10.3l-1.7,0l-0.1,10.3c0,0.8,0.2,1.4,0.5,1.8
	c0.4,0.4,0.9,0.7,1.6,0.7l1.3-0.1l0-1.7L102.8,23.3z"/>
</svg>
